<svg xmlns="http://www.w3.org/2000/svg" viewBox="0 0 100 100" fill="none">
  <rect width="100" height="100" fill="#FFF"/>
  <rect x="5" y="5" width="25" height="25" rx="2" fill="#571613"/>
  <rect x="10" y="10" width="15" height="15" rx="1" fill="#FFF"/>
  <rect x="13" y="13" width="9" height="9" fill="#571613"/>
  <rect x="70" y="5" width="25" height="25" rx="2" fill="#571613"/>
  <rect x="75" y="10" width="15" height="15" rx="1" fill="#FFF"/>
  <rect x="78" y="13" width="9" height="9" fill="#571613"/>
  <rect x="5" y="70" width="25" height="25" rx="2" fill="#571613"/>
  <rect x="10" y="75" width="15" height="15" rx="1" fill="#FFF"/>
  <rect x="13" y="78" width="9" height="9" fill="#571613"/>
  <rect x="35" y="5" width="5" height="5" fill="#571613"/>
  <rect x="45" y="5" width="5" height="5" fill="#571613"/>
  <rect x="55" y="5" width="5" height="5" fill="#571613"/>
  <rect x="35" y="15" width="5" height="5" fill="#571613"/>
  <rect x="50" y="15" width="5" height="5" fill="#571613"/>
  <rect x="60" y="15" width="5" height="5" fill="#571613"/>
  <rect x="35" y="25" width="5" height="5" fill="#571613"/>
  <rect x="45" y="25" width="5" height="5" fill="#571613"/>
  <rect x="55" y="25" width="5" height="5" fill="#571613"/>
  <rect x="35" y="35" width="30" height="5" fill="#571613"/>
  <rect x="5" y="35" width="25" height="5" fill="#571613"/>
  <rect x="35" y="45" width="5" height="5" fill="#571613"/>
  <rect x="50" y="45" width="5" height="5" fill="#571613"/>
  <rect x="65" y="45" width="5" height="5" fill="#571613"/>
  <rect x="35" y="55" width="5" height="5" fill="#571613"/>
  <rect x="45" y="55" width="5" height="5" fill="#571613"/>
  <rect x="60" y="55" width="5" height="5" fill="#571613"/>
  <rect x="70" y="55" width="5" height="5" fill="#571613"/>
  <rect x="80" y="55" width="5" height="5" fill="#571613"/>
  <rect x="90" y="55" width="5" height="5" fill="#571613"/>
  <rect x="70" y="40" width="25" height="5" fill="#571613"/>
  <rect x="75" y="70" width="20" height="5" fill="#571613"/>
  <rect x="70" y="80" width="5" height="5" fill="#571613"/>
  <rect x="80" y="75" width="5" height="5" fill="#571613"/>
  <rect x="90" y="70" width="5" height="5" fill="#571613"/>
  <rect x="85" y="85" width="10" height="10" fill="#571613"/>
  <text x="50" y="98" text-anchor="middle" font-size="5" fill="#571613" font-family="Arial">girlyf.com</text>
</svg>